/* XPM */
static char * product_logo_32_xpm[] = {
"32 32 565 2",
"  	c None",
". 	c #9BEED8",
"+ 	c #9CEFD0",
"@ 	c #85E8C8",
"# 	c #93EACD",
"$ 	c #97ECCF",
"% 	c #85EEC3",
"& 	c #74E4CD",
"* 	c #59BCE0",
"= 	c #77CCD4",
"- 	c #80D3CF",
"; 	c #84D6D0",
"> 	c #7FD2DB",
", 	c #73CDE1",
"' 	c #64C0F2",
") 	c #A5F5D0",
"! 	c #95E9CC",
"~ 	c #C4F3E6",
"{ 	c #CBBAC0",
"] 	c #C7EBE3",
"^ 	c #7EDCC7",
"/ 	c #6EDFBC",
"( 	c #7DE7B9",
"_ 	c #60C9D1",
": 	c #66C5C5",
"< 	c #6AC7C7",
"[ 	c #72CECA",
"} 	c #76D3C9",
"| 	c #7AD7C9",
"1 	c #83DEC6",
"2 	c #95E8C8",
"3 	c #7DD4E1",
"4 	c #6FC9EA",
"5 	c #88DCE3",
"6 	c #9EF0D0",
"7 	c #93E9D1",
"8 	c #A0E4D9",
"9 	c #E8F6F5",
"0 	c #6B6C6B",
"a 	c #FFEBEC",
"b 	c #33BFB1",
"c 	c #85B1A9",
"d 	c #479372",
"e 	c #66D8DB",
"f 	c #8DA9A0",
"g 	c #D9F6FF",
"h 	c #D0F0F8",
"i 	c #C9EDF6",
"j 	c #A8DDED",
"k 	c #52BDE1",
"l 	c #5BD4B8",
"m 	c #84E5C0",
"n 	c #9DE8D5",
"o 	c #8EE0DA",
"p 	c #A0F0D4",
"q 	c #A1EDD5",
"r 	c #A8A8A8",
"s 	c #BDB6B8",
"t 	c #D5E4E6",
"u 	c #BFD2D7",
"v 	c #63B8BD",
"w 	c #72C7C2",
"x 	c #333031",
"y 	c #437B62",
"z 	c #66D7E3",
"A 	c #D7CFB8",
"B 	c #CFB6CE",
"C 	c #C4AAC2",
"D 	c #FBF3F7",
"E 	c #FFFFFF",
"F 	c #D2E5FF",
"G 	c #6ACAE6",
"H 	c #6AD8C5",
"I 	c #8AE5CB",
"J 	c #9EEED0",
"K 	c #68C5ED",
"L 	c #9DEFCE",
"M 	c #A0E6D5",
"N 	c #B9BBBA",
"O 	c #BAB5B4",
"P 	c #77BCCB",
"Q 	c #1396AC",
"R 	c #9BC9CE",
"S 	c #AAA9A9",
"T 	c #000000",
"U 	c #5CAF90",
"V 	c #A676A3",
"W 	c #710071",
"X 	c #DDCFDD",
"Y 	c #FAFAFA",
"Z 	c #C29AAB",
"` 	c #E4FBFE",
" .	c #9ADAEB",
"..	c #6ADCBC",
"+.	c #97EACE",
"@.	c #9DEAD7",
"#.	c #69D1E2",
"$.	c #98EECA",
"%.	c #80DCC8",
"&.	c #A5D4CF",
"*.	c #A0C6C6",
"=.	c #54BCC4",
"-.	c #9CB2B4",
";.	c #948F8F",
">.	c #0B120A",
",.	c #8FFFF1",
"'.	c #DDD7DA",
").	c #DBDBDB",
"!.	c #FAFBFA",
"~.	c #F8F7F7",
"{.	c #D8FFF4",
"].	c #FF0058",
"^.	c #D380A5",
"/.	c #9AD1FF",
"(.	c #6EDAC3",
"_.	c #8EE6CA",
":.	c #9FECD4",
"<.	c #5DCBDD",
"[.	c #82EEBE",
"}.	c #63E0BD",
"|.	c #70C9BB",
"1.	c #DFF9F9",
"2.	c #6C6D6D",
"3.	c #282727",
"4.	c #090C06",
"5.	c #57BBC1",
"6.	c #D3CCBD",
"7.	c #F3F2EF",
"8.	c #F4F4F4",
"9.	c #F4F5F4",
"0.	c #F3F3F3",
"a.	c #FAFFFE",
"b.	c #CC86A5",
"c.	c #F3E2EA",
"d.	c #F9FBFB",
"e.	c #FFFEFB",
"f.	c #DEEFFD",
"g.	c #56C8CF",
"h.	c #88E8C2",
"i.	c #9AE8D5",
"j.	c #71DDBB",
"k.	c #76907F",
"l.	c #635D5C",
"m.	c #020602",
"n.	c #101C14",
"o.	c #1A322C",
"p.	c #6FDECD",
"q.	c #EDEEEA",
"r.	c #9B7878",
"s.	c #EDEBEB",
"t.	c #EEEEEE",
"u.	c #D5D5DD",
"v.	c #C7C7D6",
"w.	c #F6F7F7",
"x.	c #F5F8F9",
"y.	c #E0C9AF",
"z.	c #EFE4D9",
"A.	c #FBFBF9",
"B.	c #F4F5FF",
"C.	c #52C6CD",
"D.	c #87E3C7",
"E.	c #92E3D8",
"F.	c #46B4CD",
"G.	c #50B1AB",
"H.	c #62BEA0",
"I.	c #50B1B4",
"J.	c #53B5CD",
"K.	c #8EA57A",
"L.	c #AC9191",
"M.	c #5B0000",
"N.	c #B59F9F",
"O.	c #DFDFE2",
"P.	c #20207B",
"Q.	c #2B2B82",
"R.	c #E4E4E7",
"S.	c #EDEDED",
"T.	c #CA4800",
"U.	c #C37523",
"V.	c #CDD2EE",
"W.	c #E5FAFF",
"X.	c #64D3C4",
"Y.	c #80DFC7",
"Z.	c #D6FFCC",
"`.	c #87EFC0",
" +	c #509250",
".+	c #FDF0FF",
"++	c #D4D2D1",
"@+	c #CDCBCB",
"#+	c #EFF3F4",
"$+	c #F0F1F0",
"%+	c #A0A1B6",
"&+	c #65679D",
"*+	c #EDEEEB",
"=+	c #EBEAEA",
"-+	c #F1F4F8",
";+	c #CCC5B6",
">+	c #FAFFFF",
",+	c #ECEEF5",
"'+	c #FAD92F",
")+	c #ECB007",
"!+	c #94C6EC",
"~+	c #57CFB8",
"{+	c #79D4D6",
"]+	c #B5FECD",
"^+	c #7AE8B6",
"/+	c #EAE4D4",
"(+	c #FFFFEC",
"_+	c #F0EDEE",
":+	c #E8E9E8",
"<+	c #EDF2F4",
"[+	c #CEC1BC",
"}+	c #CFBAB4",
"|+	c #AC9B83",
"1+	c #AA9477",
"2+	c #CFB7A4",
"3+	c #CBBCB9",
"4+	c #EFF3F5",
"5+	c #E6E6E6",
"6+	c #F2EFF3",
"7+	c #80B080",
"8+	c #EBE7EF",
"9+	c #D0BE78",
"0+	c #DBCE97",
"a+	c #FFFDF7",
"b+	c #97D8EB",
"c+	c #66D3BE",
"d+	c #80D3DF",
"e+	c #66C7F0",
"f+	c #A3F5CA",
"g+	c #48D3BF",
"h+	c #9E99B3",
"i+	c #CFC2A4",
"j+	c #BD9CA2",
"k+	c #B2959F",
"l+	c #DDD7C4",
"m+	c #70709B",
"n+	c #00004F",
"o+	c #CECED7",
"p+	c #E3E3E3",
"q+	c #C0A799",
"r+	c #C0A085",
"s+	c #B6936C",
"t+	c #BCA798",
"u+	c #F7F3F7",
"v+	c #498E49",
"w+	c #007F00",
"x+	c #FBE5FB",
"y+	c #FAFCFF",
"z+	c #FAFAFB",
"A+	c #F5F5F5",
"B+	c #D8DDE5",
"C+	c #4EC4C0",
"D+	c #7AD3CF",
"E+	c #4CB8F3",
"F+	c #9CEFC7",
"G+	c #23A9CE",
"H+	c #F5DCD2",
"I+	c #FFFFFE",
"J+	c #E4EBEF",
"K+	c #F0F4F5",
"L+	c #F1F1F1",
"M+	c #CFCFDC",
"N+	c #5D5C89",
"O+	c #DCE1E8",
"P+	c #BFA798",
"Q+	c #BEB3AC",
"R+	c #E7EEEA",
"S+	c #B2C8B2",
"T+	c #F5F2F5",
"U+	c #F0F0F0",
"V+	c #F9FAFA",
"W+	c #987171",
"X+	c #842928",
"Y+	c #68B4D8",
"Z+	c #51C5B7",
"`+	c #99EEC6",
" @	c #3183AA",
".@	c #D16E0C",
"+@	c #D8985F",
"@@	c #F4F8FD",
"#@	c #E9E9E9",
"$@	c #F4F5F2",
"%@	c #CCBFBB",
"&@	c #B99775",
"*@	c #CCC2BE",
"=@	c #EAEAEA",
"-@	c #EBECEA",
";@	c #F5F8F8",
">@	c #A36E6E",
",@	c #8E3C3A",
"'@	c #64A1CE",
")@	c #3FBCAE",
"!@	c #61CFD2",
"~@	c #81A0AB",
"{@	c #C3A78B",
"]@	c #E9D5C3",
"^@	c #CFCBBB",
"/@	c #E4E7F6",
"(@	c #E4E2E0",
"_@	c #C1A693",
":@	c #AF9675",
"<@	c #CF8EAC",
"[@	c #D83783",
"}@	c #F9FFFF",
"|@	c #F0F1F1",
"1@	c #FAF9F8",
"2@	c #53B7E6",
"3@	c #39B5AC",
"4@	c #39AFD6",
"5@	c #48BCDC",
"6@	c #92AAB0",
"7@	c #F7F8F8",
"8@	c #FEFFFF",
"9@	c #F3F6FE",
"0@	c #DBC04B",
"a@	c #DAA600",
"b@	c #D7DAEA",
"c@	c #AC8E6E",
"d@	c #A79470",
"e@	c #EFFFF8",
"f@	c #CE307D",
"g@	c #DD156C",
"h@	c #F4FFFF",
"i@	c #FDFBFB",
"j@	c #4EB4D7",
"k@	c #2CABAD",
"l@	c #28A4D8",
"m@	c #3DB4E5",
"n@	c #88A5AE",
"o@	c #E0E4E4",
"p@	c #905B5C",
"q@	c #EAE6E6",
"r@	c #E0DAC7",
"s@	c #DFD7BC",
"t@	c #DFDDDF",
"u@	c #AD9070",
"v@	c #A79570",
"w@	c #E4E2E3",
"x@	c #E7EEEC",
"y@	c #E9E8E9",
"z@	c #F3F4F3",
"A@	c #DFF0F9",
"B@	c #219EB4",
"C@	c #20A1AB",
"D@	c #32A6D4",
"E@	c #56849C",
"F@	c #F8F6F8",
"G@	c #802E2E",
"H@	c #741616",
"I@	c #E3DEDE",
"J@	c #EEEEEF",
"K@	c #E7E5E7",
"L@	c #D9D8D7",
"M@	c #C1A48F",
"N@	c #B39B7B",
"O@	c #DCDAD9",
"P@	c #E7DCB0",
"Q@	c #E9E6E1",
"R@	c #D1D1D8",
"S@	c #202071",
"T@	c #9EA3BD",
"U@	c #8ECCF4",
"V@	c #0390C4",
"W@	c #49B9C2",
"X@	c #73C4D8",
"Y@	c #E6E6EC",
"Z@	c #D3C1C1",
"`@	c #EEEDED",
" #	c #D2DCD2",
".#	c #3D9D3D",
"+#	c #5DAC5D",
"@#	c #CCBEC0",
"##	c #B48D69",
"$#	c #C9B4AD",
"%#	c #BEB9B0",
"&#	c #FCCA00",
"*#	c #E3D5A7",
"=#	c #E0E0E6",
"-#	c #121263",
";#	c #BEBECF",
">#	c #006BC5",
",#	c #61CBC2",
"'#	c #5BD1BC",
")#	c #CDE9F2",
"!#	c #F6F6F6",
"~#	c #E1E5E1",
"{#	c #2F972F",
"]#	c #53A353",
"^#	c #ECE9EE",
"/#	c #C6C1BB",
"(#	c #BFA99B",
"_#	c #E7ECEF",
":#	c #E9F2FF",
"<#	c #C8AA54",
"[#	c #EAEBEE",
"}#	c #E6E1E0",
"|#	c #F9F9FA",
"1#	c #FCFCFE",
"2#	c #ECE4E2",
"3#	c #7FD5DC",
"4#	c #6BDEBF",
"5#	c #BCE4F2",
"6#	c #EEEDEB",
"7#	c #F5FFF5",
"8#	c #EDEBED",
"9#	c #D7DBD7",
"0#	c #E2E2E2",
"a#	c #CBC5BF",
"b#	c #AD8665",
"c#	c #977145",
"d#	c #C4B5AA",
"e#	c #DFDFDF",
"f#	c #DCD3CA",
"g#	c #D5DADD",
"h#	c #ECECF0",
"i#	c #560808",
"j#	c #B99E9E",
"k#	c #FDFFFF",
"l#	c #9E8580",
"m#	c #A2F6CC",
"n#	c #65D2E6",
"o#	c #C696B0",
"p#	c #5D005D",
"q#	c #ECFAEC",
"r#	c #E9EAEA",
"s#	c #641111",
"t#	c #B6A2A2",
"u#	c #DDE1E5",
"v#	c #C8C0BD",
"w#	c #AB9B82",
"x#	c #AB9B81",
"y#	c #C1B9AD",
"z#	c #E3E6EC",
"A#	c #E4E5E5",
"B#	c #E8E8E8",
"C#	c #D1AD8C",
"D#	c #DD5900",
"E#	c #E9F5FF",
"F#	c #EEFFFF",
"G#	c #791D1D",
"H#	c #9F7575",
"I#	c #C5B9BC",
"J#	c #A0866E",
"K#	c #CAE8F6",
"L#	c #DCCEDA",
"M#	c #C6AAC6",
"N#	c #EFF0EF",
"O#	c #E7E2E2",
"P#	c #6F1010",
"Q#	c #885252",
"R#	c #E0E1E1",
"S#	c #F6EFF6",
"T#	c #F6F3F7",
"U#	c #E3E4E5",
"V#	c #CBC7C9",
"W#	c #A58283",
"X#	c #E5E8E8",
"Y#	c #E4E4E4",
"Z#	c #DED3CB",
"`#	c #EAD0B4",
" $	c #E9E9EB",
".$	c #FFFFFD",
"+$	c #F1EFEE",
"@$	c #A88F83",
"#$	c #DBD2C7",
"$$	c #F8F8F8",
"%$	c #BDBDCF",
"&$	c #9192AC",
"*$	c #F5FAFA",
"=$	c #EBE7EB",
"-$	c #257E25",
";$	c #6A8B6A",
">$	c #EFF4F4",
",$	c #7B3838",
"'$	c #6F0909",
")$	c #D4CCCC",
"!$	c #EDEFED",
"~$	c #EBEBEC",
"{$	c #EFEFF0",
"]$	c #ECEBEC",
"^$	c #5B5B91",
"/$	c #2A2A75",
"($	c #CFC4C3",
"_$	c #C7BEB3",
":$	c #FCFCFD",
"<$	c #E8E8EA",
"[$	c #0A0A66",
"}$	c #343486",
"|$	c #F9F9F5",
"1$	c #C7D8CF",
"2$	c #EBF0F0",
"3$	c #66A166",
"4$	c #A4BFA4",
"5$	c #CFBEBE",
"6$	c #CAB6B6",
"7$	c #E5E3E4",
"8$	c #DEDADE",
"9$	c #AC8CAC",
"0$	c #F1F0F1",
"a$	c #F1F1F2",
"b$	c #6A6A9B",
"c$	c #27276D",
"d$	c #F3F5F2",
"e$	c #A38783",
"f$	c #E0DBD9",
"g$	c #FFFFF7",
"h$	c #B7B6C3",
"i$	c #C6E8D7",
"j$	c #FF0060",
"k$	c #D9A3BC",
"l$	c #F9F7F9",
"m$	c #F3F0F3",
"n$	c #EDEEF0",
"o$	c #EBECEC",
"p$	c #ECECEC",
"q$	c #D5C5D5",
"r$	c #7E007E",
"s$	c #8D488D",
"t$	c #F5F8F5",
"u$	c #B7A7A5",
"v$	c #A28E6C",
"w$	c #C6BABA",
"x$	c #FDFDFC",
"y$	c #F7FFFF",
"z$	c #C6447E",
"A$	c #EBDAE2",
"B$	c #F6F6FB",
"C$	c #C1BA8F",
"D$	c #EEF0F9",
"E$	c #EDEDEA",
"F$	c #ECEAEC",
"G$	c #D0B7D0",
"H$	c #F7F7F7",
"I$	c #B4A4A2",
"J$	c #A28B85",
"K$	c #CCC3C2",
"L$	c #E7E2E3",
"M$	c #FCFFFF",
"N$	c #FAFEFF",
"O$	c #DBB414",
"P$	c #C49900",
"Q$	c #F8FEFF",
"R$	c #F9F9F9",
"S$	c #E1DBDB",
"T$	c #A48C88",
"U$	c #A38975",
"V$	c #AE9494",
"W$	c #C1B2B2",
"X$	c #F8F8FA",
"Y$	c #E8E1CA",
"Z$	c #EFEBDC",
"`$	c #D9D4D3",
" %	c #B8A5A6",
".%	c #AA9387",
"+%	c #A1867C",
"@%	c #C6BAB5",
"#%	c #EBE8E7",
"$%	c #EFEDEA",
"%%	c #EEECEA",
"&%	c #EAE7E5",
"*%	c #DFD8D7",
"=%	c #B9AAA7",
"-%	c #977B77",
";%	c #A98D87",
">%	c #A58A7A",
"                                                                ",
"        . + @ # $ % & * = - ; > , '                             ",
"      ) ! ~ { ] ^ / ( _ : < [ } | 1 2 3 4                       ",
"  5 6 7 8 9 0 a b c d e   f g h i j k l m n o                   ",
"  p q r s t u v w x y z     A B C D E F G H I J K               ",
"  L M N O P Q R S T U         V W X Y E Z `  ...+.@.            ",
"#.$.%.&.*.=.-.;.T >.,.        '.).!.~.{.].^.E /.(._.:.          ",
"<.[.}.|.1.2.3.T 4.5.      6.7.8.9.0.0.a.b.c.d.e.f.g.h.i.        ",
"  j.k.l.T m.n.o.p.        q.r.s.t.u.v.t.w.x.y.z.A.B.C.D.E.      ",
"    F.G.H.I.J.          K.L.M.N.O.P.Q.R.S.E T.U.E V.W.X.Y.      ",
"    Z.`.               +.+++@+#+$+%+&+*+=+-+;+>+,+'+)+!+~+{+    ",
"    ]+^+          /+(+_+:+<+[+}+|+1+2+3+4+5+6+7+8+9+0+a+b+c+d+  ",
"  e+f+g+h+i+j+k+l+m+n+o+p+q+r+        s+t+u+v+w+x+y+z+A+B+C+D+  ",
"  E+F+G+H+I+J+K+L+M+N+O+P+                Q+R+S+T+U+V+W+X+Y+Z+  ",
"    `+ @E E .@+@@@#@$@%@&@                  *@=@=+-@;@>@,@'@)@  ",
"    !@~@E E {@]@^@/@(@_@                    :@#@<@[@}@|@1@2@3@4@",
"    5@6@E 7@8@9@0@a@b@c@                    d@e@f@g@h@8.i@j@k@l@",
"    m@n@E o@p@q@r@s@t@u@                    v@w@x@y@z@E A@B@C@D@",
"      E@F@G@H@I@J@K@L@M@                    N@O@P@Q@R@S@T@U@V@  ",
"      W@X@Y@Z@`@ #.#+#@###                  $#%#&#*#=#-#;#E >#  ",
"      ,#'#)#!#L+~#{#]#^#/#                (#_#:#<#[#}#E |#1#2#  ",
"      3#4#5#6#7#8#~#9#>+0#a#b#        c#d#e#f#g#h#E i#j#k#E l#  ",
"        m#n#o#p#q#S.r#s#t#0#u#v#w#x#y#z#A#B#C#D#E#F#G#H#E I#J#  ",
"          K#L#M#N#t.O#P#Q#R#S#T#U#V#W#X#Y##@Z#`# $.$E k#+$@$    ",
"          #$E $$J@%$&$8@*$=$-$;$>$,$'$)$B#!$~${$]$^$/$!.($      ",
"            _$:$<$[$}$|$1$2$3$4$r#5$6$7$8$9$E 0$a$b$c$d$e$      ",
"              f$8@g$h$i$j$k$l$m$n$o$p$S.q$r$s$t$!#E E u$        ",
"              v$w$E x$y$z$A$U+B$C$D$E$U+F$G$F$H$Y E I$          ",
"                  J$K$L$M$8.0.N$O$P$Q$0.8.R$Y 8.S$T$            ",
"                    U$V$W$w.H$X$Y$Z$$$8@E `$ %.%                ",
"                        +%@%#%$%%%&%*%=%-%;%>%                  ",
"                                                                "};
